<?xml version="1.0" standalone="no"?>
<!DOCTYPE svg PUBLIC "-//W3C//DTD SVG 20010904//EN"
 "http://www.w3.org/TR/2001/REC-SVG-20010904/DTD/svg10.dtd">
<svg version="1.0" xmlns="http://www.w3.org/2000/svg"
 width="500.000000pt" height="500.000000pt" viewBox="0 0 500.000000 500.000000"
 preserveAspectRatio="xMidYMid meet">
<metadata>
Created by potrace 1.14, written by Peter Selinger 2001-2017
</metadata>
<g transform="translate(0.000000,500.000000) scale(0.100000,-0.100000)"
fill="#000000" stroke="none">
<path d="M2250 4491 c-556 -47 -972 -251 -1273 -624 -267 -331 -426 -778 -466
-1312 -6 -71 -10 -418 -10 -770 0 -590 1 -644 17 -692 34 -97 120 -184 224
-226 49 -20 71 -22 263 -22 196 0 214 2 268 24 76 30 164 112 202 188 l30 58
0 535 0 535 -30 58 c-38 76 -126 158 -202 188 -54 22 -72 24 -270 24 -206 0
-213 1 -213 20 0 64 33 313 56 422 47 233 151 499 257 664 229 357 583 571
1047 634 124 17 550 20 685 5 191 -22 434 -95 585 -177 307 -167 550 -473 674
-848 62 -186 110 -428 122 -618 l7 -102 -209 0 c-175 0 -217 -3 -260 -18 -70
-24 -138 -74 -185 -137 -69 -92 -69 -94 -69 -652 0 -469 1 -502 20 -554 35
-101 117 -184 222 -227 49 -20 71 -22 263 -22 196 0 214 2 268 24 76 30 168
115 204 189 l28 57 3 650 c3 675 -3 842 -38 1061 -73 457 -239 833 -491 1110
-266 294 -607 468 -1044 534 -156 24 -518 35 -685 21z"/>
<path d="M3169 3790 c-10 -7 -15 -39 -19 -125 l-5 -116 -170 -93 c-93 -52
-174 -100 -179 -109 -12 -19 8 -47 33 -46 9 0 54 22 101 48 47 27 86 48 87 47
2 -2 -26 -219 -29 -221 -2 -1 -43 -7 -92 -14 -115 -16 -190 -53 -274 -137
l-64 -64 -331 45 c-182 26 -332 47 -333 48 -14 16 -84 203 -84 224 0 46 11 52
90 55 61 2 75 6 78 20 6 30 -43 50 -142 59 -51 5 -128 18 -171 29 -97 25 -106
25 -139 -1 -57 -45 -21 -109 60 -109 l42 0 86 -145 c47 -80 86 -147 86 -150 0
-2 -20 -13 -44 -24 -61 -26 -132 -100 -164 -169 -38 -83 -38 -192 2 -279 29
-64 101 -142 151 -165 14 -6 25 -16 25 -22 0 -6 -35 -82 -77 -169 -61 -126
-75 -162 -66 -175 5 -9 19 -17 29 -17 15 0 38 40 103 173 l85 172 50 0 c28 0
186 20 351 45 l300 44 52 -58 c61 -68 126 -112 209 -142 82 -30 216 -30 299
-1 33 11 61 20 62 19 1 -1 29 -59 63 -129 62 -131 80 -149 110 -113 11 13 2
37 -49 146 l-63 131 60 59 c187 187 188 478 4 664 -57 57 -172 125 -212 125
-24 0 -24 3 -2 168 l17 123 60 33 60 33 3 136 c2 123 1 137 -16 146 -11 6 -24
6 -33 1z m-217 -970 c44 -13 85 -58 94 -105 8 -45 -20 -102 -65 -132 l-34 -23
-526 0 c-507 0 -527 1 -559 20 -39 24 -72 75 -72 113 0 54 43 111 96 127 42
12 1021 12 1066 0z"/>
<path d="M2010 2801 c0 -5 7 -14 14 -21 22 -18 38 -76 31 -110 -4 -17 -18 -44
-32 -60 l-25 -30 423 0 422 0 -20 23 c-50 55 -56 105 -18 161 14 20 25 39 25
41 0 3 -184 5 -410 5 -229 0 -410 -4 -410 -9z"/>
<path d="M1857 2780 c-81 -64 -33 -196 70 -192 102 4 145 130 66 192 -34 27
-101 27 -136 0z"/>
<path d="M4600 1664 c0 -314 3 -394 13 -388 6 5 56 36 110 71 l97 63 -2 261
-3 260 -107 64 -108 64 0 -395z"/>
<path d="M283 1989 l-103 -61 0 -257 0 -258 83 -55 c45 -30 94 -63 110 -72
l27 -18 0 391 c0 215 -3 391 -7 391 -5 -1 -54 -28 -110 -61z"/>
</g>
</svg>
